<?xml version="1.0" encoding="UTF-8"?>
<!DOCTYPE svg PUBLIC "-//W3C//DTD SVG 1.1//EN" "http://www.w3.org/Graphics/SVG/1.1/DTD/svg11.dtd">
<!-- Creator: CorelDRAW 2018 (64-Bit) -->
<svg xmlns="http://www.w3.org/2000/svg" xml:space="preserve" width="219.649mm" height="28.5647mm" version="1.1" style="shape-rendering:geometricPrecision; text-rendering:geometricPrecision; image-rendering:optimizeQuality; fill-rule:evenodd; clip-rule:evenodd"
viewBox="0 0 21964.88 2856.47"
 xmlns:xlink="http://www.w3.org/1999/xlink">
 <defs>
  <style type="text/css">
   <![CDATA[
    .fil0 {fill:#373435;fill-rule:nonzero}
   ]]>
  </style>
 </defs>
 <g id="Layer_x0020_1">
  <metadata id="CorelCorpID_0Corel-Layer"/>
  <g>
   <path class="fil0" d="M19724.52 2788.28l0 -2720.09 61.46 0 1893.4 2080.48 0 -2080.48 285.5 0 0 2720.09 -64.77 0 -1882.17 -2062.16 0 2062.16 -293.42 0zm-6410.29 -508.91l241.88 -138.91c170.51,300.55 367.44,450.82 590.83,450.82 95.82,0 185.7,-21.47 269.63,-63.77 83.93,-42.3 148.03,-99.76 191.66,-171.11 44.27,-71.35 66.08,-147.12 66.08,-227.31 0,-90.92 -32.38,-179.95 -97.15,-267.71 -89.22,-120.6 -251.79,-266.45 -489.05,-436.3 -237.91,-171.74 -385.95,-295.5 -444.1,-371.9 -101.11,-128.17 -151.34,-267.08 -151.34,-416.09 0,-118.07 29.74,-226.04 89.22,-323.28 59.47,-97.24 143.4,-173.64 251.79,-229.83 108.38,-56.2 225.36,-83.98 352.24,-83.98 134.83,0 261.04,31.57 378.02,95.34 116.98,63.15 241.23,179.95 372.07,349.8l-232.62 168.59c-107.72,-135.75 -199.58,-225.41 -275.59,-268.35 -76,-43.57 -158.6,-65.03 -247.82,-65.03 -115.66,0 -210.16,33.46 -283.51,99.76 -73.37,66.93 -110.38,148.38 -110.38,246.24 0,58.73 13.22,116.18 38.99,171.75 25.78,55.56 73.36,115.54 142.1,181.21 37,34.1 160.59,125.02 369.42,271.5 247.18,174.27 417.02,328.96 508.88,464.08 91.86,135.76 138.11,272.14 138.11,409.15 0,197 -78.63,368.74 -235.27,513.97 -157.28,145.85 -348.27,218.46 -572.97,218.46 -173.15,0 -330.43,-44.2 -471.2,-132.59 -140.77,-88.4 -270.96,-236.78 -389.92,-444.51zm-2577.31 0l241.88 -138.91c170.51,300.55 367.44,450.82 590.82,450.82 95.83,0 185.71,-21.47 269.64,-63.77 83.93,-42.3 148.03,-99.76 191.66,-171.11 44.27,-71.35 66.08,-147.12 66.08,-227.31 0,-90.92 -32.38,-179.95 -97.15,-267.71 -89.22,-120.6 -251.79,-266.45 -489.05,-436.3 -237.91,-171.74 -385.95,-295.5 -444.1,-371.9 -101.11,-128.17 -151.34,-267.08 -151.34,-416.09 0,-118.07 29.73,-226.04 89.22,-323.28 59.47,-97.24 143.4,-173.64 251.79,-229.83 108.38,-56.2 225.35,-83.98 352.24,-83.98 134.83,0 261.04,31.57 378.02,95.34 116.98,63.15 241.23,179.95 372.07,349.8l-232.62 168.59c-107.73,-135.75 -199.58,-225.41 -275.59,-268.35 -76,-43.57 -158.6,-65.03 -247.82,-65.03 -115.66,0 -210.16,33.46 -283.51,99.76 -73.37,66.93 -110.38,148.38 -110.38,246.24 0,58.73 13.22,116.18 38.99,171.75 25.78,55.56 73.36,115.54 142.1,181.21 37,34.1 160.59,125.02 369.42,271.5 247.17,174.27 417.02,328.96 508.87,464.08 91.87,135.76 138.12,272.14 138.12,409.15 0,197 -78.63,368.74 -235.27,513.97 -157.28,145.85 -348.27,218.46 -572.97,218.46 -173.15,0 -330.43,-44.2 -471.2,-132.59 -140.77,-88.4 -270.96,-236.78 -389.92,-444.51zm-5796.68 -503.55l0 -265.19 1055.1 0 0 -1442.44 285.5 0 0 2720.09 -285.5 0 0 -1012.46 -1055.1 0 0 0zm-396.18 1012.46l-285.5 0 0 -2720.09 285.5 0c0,906.7 0,1813.39 0,2720.09zm-1669.27 -2264.21l-220.73 199.52c-159.27,-149.01 -333.74,-262.03 -523.41,-339.06 -189.68,-77.03 -374.72,-115.55 -555.14,-115.55 -224.04,0 -437.49,52.41 -639.72,157.22 -202.89,104.81 -360.18,246.88 -471.21,426.83 -111.69,179.32 -167.2,368.74 -167.2,568.89 0,204.58 57.5,399.05 172.49,584.05 114.99,184.37 274.26,328.96 477.15,434.41 203.55,105.44 425.61,158.48 667.48,158.48 293.43,0 541.92,-78.93 744.81,-236.15 202.88,-157.22 323.17,-361.79 360.84,-612.46l-908.04 0 0 -265.19 1229.22 0c-2.65,419.89 -133.49,753.9 -392.55,1000.78 -259.74,246.88 -606.03,370.63 -1040.88,370.63 -527.38,0 -945.05,-171.11 -1253.02,-513.96 -236.6,-263.93 -354.89,-568.9 -354.89,-915.54 0,-256.98 68.07,-496.91 203.54,-719.16 136.14,-221.63 322.52,-395.26 559.11,-520.28 237.25,-125.02 504.9,-187.53 803.62,-187.53 241.88,0 469.89,41.68 683.34,124.39 213.46,83.34 422.31,215.94 625.19,399.68zm5750.07 114.91l-1062.68 2149.3 -317.23 0 1344.23 -2720.09 71.37 0 1328.36 2720.09 -305.99 0 -494.97 -1005.46 -769.7 0 130.89 -267.68 510.16 6.34 -434.44 -882.5zm8766.26 0l-1062.68 2149.3 -317.23 0 1344.23 -2720.09 71.37 0 1328.36 2720.09 -305.99 0 -494.97 -1005.46 -769.7 0 130.89 -267.68 510.16 6.34 -434.44 -882.5z"/>
  </g>
 </g>
</svg>
