<?xml version="1.0" encoding="utf-8"?>
<!-- Generator: Adobe Illustrator 21.0.2, SVG Export Plug-In . SVG Version: 6.00 Build 0)  -->
<svg version="1.1" id="Layer_1" xmlns="http://www.w3.org/2000/svg" xmlns:xlink="http://www.w3.org/1999/xlink" x="0px" y="0px"
	 viewBox="0 0 57.6 92.8" style="enable-background:new 0 0 57.6 92.8;" xml:space="preserve">
<g>
	<path d="M30.9,4.3c-1.2,0-2.5,0-3.7,0C20.8,4.9,15.8,7.6,12,11.4c-3.5,3.5-6.5,8.7-6.9,14.8c-0.5,6.6,0,13.6,0,20.9
		c0,6.8-0.5,14,0,20.7C6,79.9,15.6,88.9,27.3,89.7c12.1,0.8,20.9-6.6,24.1-15.3c0.7-1.9,0.8-3.7,1.3-6.2c0-14.1,0-28.2,0-42.2
		C50.8,13.4,43.5,6.2,30.9,4.3z M47.1,72.5C44.2,80.2,36.8,85,28.8,85C19.7,85,11,78.5,9.4,68.9c-0.9-5.1-0.2-12.6-0.2-18.1
		c0-6.3,0-12.5,0-18.3c0-6.3,0.5-11.1,3.2-15.1c3.1-4.6,8.3-8.1,16.3-8.2c9.9-0.1,17.8,7,19.4,15.5c0.5,2.7,0.2,27,0.4,36.1
		C48.5,65.1,48.3,69.5,47.1,72.5z"/>
	<path d="M37.2,33.9c-2.1,2.1-4.1,4.1-5.8,5.8c0-6.7-0.1-16.9-0.1-20.9c0-2.9-4.9-2.8-4.9,0.1c0,4.4,0,14.2,0,20.7
		c-2.8-2.8-5-5-5.8-5.8c-2-2-5.6,1.6-3.6,3.6c0.7,0.7,5.5,5.3,9.6,9.4c0.2,0.5,0.6,0.8,1.1,1c0.3,0.2,0.6,0.3,0.9,0.4
		c0.7,0.2,1.4,0.1,2-0.5c0.8-0.8,6-6.2,10.2-10.4C42.8,35.2,39.3,31.8,37.2,33.9z"/>
</g>
</svg>
