<?xml version="1.0" encoding="utf-8"?>
<!-- Generator: Adobe Illustrator 21.0.2, SVG Export Plug-In . SVG Version: 6.00 Build 0)  -->
<svg version="1.1" id="Layer_1" xmlns="http://www.w3.org/2000/svg" xmlns:xlink="http://www.w3.org/1999/xlink" x="0px" y="0px"
	 viewBox="0 0 530 103" style="enable-background:new 0 0 530 103;" xml:space="preserve">
<style type="text/css">
	.st0{fill:#16325C;}
</style>
<g>
	<path class="st0" d="M47.3,71.2c0-3.5-0.9-6.2-2.7-8c-1.8-1.8-5.1-3.7-9.8-5.6c-8.6-3.3-14.9-7.1-18.6-11.5s-5.7-9.6-5.7-15.6
		c0-7.3,2.6-13.1,7.7-17.5s11.7-6.6,19.6-6.6c5.3,0,10,1.1,14.1,3.3s7.3,5.4,9.6,9.4s3.3,8.7,3.3,13.9H47.5c0-4-0.9-7.1-2.6-9.2
		s-4.2-3.2-7.4-3.2c-3,0-5.4,0.9-7.1,2.7c-1.7,1.8-2.5,4.2-2.5,7.3c0,2.4,0.9,4.5,2.8,6.4C32.6,39,36,40.9,40.8,43
		c8.4,3,14.5,6.8,18.3,11.2c3.8,4.4,5.7,10,5.7,16.9c0,7.5-2.4,13.4-7.2,17.6S46.4,95,38.2,95c-5.6,0-10.6-1.1-15.2-3.4
		s-8.2-5.6-10.7-9.8c-2.6-4.3-3.9-9.3-3.9-15.1h17.5c0,5,1,8.6,2.9,10.8s5.1,3.4,9.5,3.4C44.3,80.8,47.3,77.6,47.3,71.2z"/>
	<path class="st0" d="M136.8,93.8h-17.3V56.9H93.8v36.9H76.4V7.6h17.4v34.9h25.7V7.6h17.3V93.8z"/>
	<path class="st0" d="M193,76.1h-23.7l-4.6,17.6h-18.4l26.9-86.2h15.9l27.1,86.2h-18.6L193,76.1z M173,61.6h16.1l-8.1-30.7L173,61.6
		z"/>
	<path class="st0" d="M247,7.6l16.3,62.3l16.2-62.3h22.7v86.2h-17.5V70.5l1.6-35.9l-17.2,59.3h-11.8l-17.2-59.3l1.6,35.9v23.3h-17.4
		V7.6H247z"/>
	<path class="st0" d="M333.6,63.5v30.3h-17.4V7.6h29.4c8.5,0,15.3,2.6,20.4,7.9s7.6,12.2,7.6,20.6s-2.5,15.1-7.5,20
		c-5,4.9-12,7.3-20.8,7.3H333.6z M333.6,49h12c3.3,0,5.9-1.1,7.7-3.3c1.8-2.2,2.7-5.3,2.7-9.5c0-4.3-0.9-7.7-2.8-10.3
		c-1.9-2.5-4.3-3.8-7.5-3.9h-12.1V49z"/>
	<path class="st0" d="M445.8,58.4c0,11.6-2.7,20.5-8.2,26.9c-5.5,6.4-13.1,9.6-22.8,9.6c-9.7,0-17.3-3.2-22.8-9.5
		c-5.5-6.3-8.3-15.2-8.4-26.6V44.1c0-11.8,2.7-21.1,8.2-27.7s13.1-10,22.9-10c9.6,0,17.1,3.3,22.7,9.8c5.5,6.5,8.3,15.7,8.4,27.5
		V58.4z M428.4,44c0-7.8-1.1-13.6-3.3-17.3s-5.6-5.7-10.3-5.7c-4.6,0-8,1.8-10.2,5.5s-3.4,9.2-3.4,16.7v15.3
		c0,7.5,1.1,13.1,3.4,16.7s5.7,5.4,10.4,5.4c4.5,0,7.9-1.7,10.1-5.2c2.2-3.5,3.3-8.9,3.4-16.3V44z"/>
	<path class="st0" d="M519,58.4c0,11.6-2.7,20.5-8.2,26.9S497.7,95,488,95c-9.7,0-17.3-3.2-22.8-9.5c-5.5-6.3-8.3-15.2-8.4-26.6
		V44.1c0-11.8,2.7-21.1,8.2-27.7c5.5-6.7,13.1-10,22.9-10c9.6,0,17.1,3.3,22.7,9.8c5.5,6.5,8.3,15.7,8.4,27.5V58.4z M501.5,44
		c0-7.8-1.1-13.6-3.3-17.3s-5.6-5.7-10.3-5.7c-4.6,0-8,1.8-10.2,5.5s-3.4,9.2-3.4,16.7v15.3c0,7.5,1.1,13.1,3.4,16.7
		c2.2,3.6,5.7,5.4,10.4,5.4c4.5,0,7.9-1.7,10.1-5.2c2.2-3.5,3.3-8.9,3.4-16.3V44z"/>
</g>
</svg>
